<svg xmlns="http://www.w3.org/2000/svg" viewBox="0 0 320 56" fill="none">
  <defs>
    <linearGradient id="bg" x1="0" y1="0" x2="1" y2="1">
      <stop offset="0%" stop-color="#f8fafc"/>
      <stop offset="100%" stop-color="#f1f5f9"/>
    </linearGradient>
    <linearGradient id="a1" x1="0" y1="0" x2="1" y2="1">
      <stop offset="0%" stop-color="#0EA5E9"/>
      <stop offset="100%" stop-color="#38bdf8"/>
    </linearGradient>
    <linearGradient id="a2" x1="1" y1="0" x2="0" y2="1">
      <stop offset="0%" stop-color="#0EA5E9"/>
      <stop offset="100%" stop-color="#7dd3fc"/>
    </linearGradient>
    <linearGradient id="a3" x1="0.5" y1="0" x2="0.5" y2="1">
      <stop offset="0%" stop-color="#38bdf8"/>
      <stop offset="100%" stop-color="#0EA5E9"/>
    </linearGradient>
  </defs>
  <!-- Background -->
  <rect width="320" height="56" rx="16" fill="url(#bg)"/>
  <!-- Icon area -->
  <g transform="translate(16,4)">
    <!-- Dashed ring -->
    <circle cx="24" cy="24" r="21" stroke="#e2e8f0" stroke-width="0.75" stroke-dasharray="3 4" opacity="0.6"/>
    <!-- Center node -->
    <circle cx="24" cy="24" r="3.5" fill="#0EA5E9"/>
    <circle cx="24" cy="24" r="1.5" fill="#fff"/>
    <!-- Arc 1 -->
    <path d="M24 10 A14 14 0 0 1 34 19" stroke="url(#a1)" stroke-width="2.5" stroke-linecap="round" fill="none"/>
    <!-- Arc 2 -->
    <path d="M34 29 A14 14 0 0 1 24 38" stroke="url(#a2)" stroke-width="2.5" stroke-linecap="round" fill="none"/>
    <!-- Arc 3 -->
    <path d="M14 29 A14 14 0 0 1 14 19" stroke="url(#a3)" stroke-width="2.5" stroke-linecap="round" fill="none"/>
  </g>
  <!-- Text -->
  <text x="72" y="35" font-family="system-ui,-apple-system,sans-serif" font-size="22" font-weight="800" fill="#0f172a" letter-spacing="-0.5">11Ai</text>
  <text x="125" y="35" font-family="system-ui,-apple-system,sans-serif" font-size="18" font-weight="500" fill="#64748b" letter-spacing="0.5">Labs</text>
</svg>
